<?xml version="1.0" encoding="UTF-8" standalone="no"?> <svg id="Layer_1" data-name="Layer 1" xmlns="http://www.w3.org/2000/svg" viewBox="0 0 128 128"><defs><style>.cls-1{fill:#2d3e50;}.cls-2{fill:#1d75b8;}</style></defs><title>a</title><path class="cls-1" d="M84.46631,76.13764A41.19663,41.19663,0,1,0,2.8897,87.7094a40.41073,40.41073,0,0,0,1.24768,5.78438,41.47715,41.47715,0,0,0,5.159,10.2339c.021.32771.04209.6554.0451.9801A18.98417,18.98417,0,0,1,1.70817,120.3653a.98452.98452,0,0,0,.43895,1.76478A29.35188,29.35188,0,0,0,22.77125,117.419c.1864-.12327.3698-.24954.55018-.3758l.15032-.10825a48.688,48.688,0,0,0,15.11935,5.88059,41.22817,41.22817,0,0,0,45.8752-46.67789ZM24.43984,87.3817A5.45818,5.45818,0,1,1,29.89952,81.922,5.45949,5.45949,0,0,1,24.43984,87.3817Zm19.35842,0A5.45818,5.45818,0,1,1,49.258,81.922,5.45949,5.45949,0,0,1,43.79826,87.3817Zm19.35543,0a5.45818,5.45818,0,1,1,5.4597-5.45968A5.45949,5.45949,0,0,1,63.15369,87.3817Z"/><path class="cls-2" d="M126.66161,85.54477a.97623.97623,0,0,1-.80873.73658,29.35,29.35,0,0,1-20.62413-4.70809c-.1864-.12326-.36979-.25253-.55018-.37881l-.15032-.10823a48.57583,48.57583,0,0,1-14.63833,5.77537,46.82327,46.82327,0,0,0-.21345-11.46354A46.47826,46.47826,0,0,0,44.51078,35.46357a41.2,41.2,0,1,1,79.35184,22.18148,41.57133,41.57133,0,0,1-5.156,10.2339c-.02406.32771-.0451.6554-.04811.9801a18.98967,18.98967,0,0,0,7.63334,15.66051A.97664.97664,0,0,1,126.66161,85.54477Z"/></svg>